<svg width="37" height="31" viewBox="0 0 37 31" fill="none" xmlns="http://www.w3.org/2000/svg">
<path fill-rule="evenodd" clip-rule="evenodd" d="M18.5 8.88686C16.7884 8.88686 15.147 9.56415 13.9367 10.7697C12.7264 11.9753 12.0465 13.6105 12.0465 15.3154C12.0465 17.0204 12.7264 18.6555 13.9367 19.8611C15.147 21.0667 16.7884 21.744 18.5 21.744C20.2116 21.744 21.853 21.0667 23.0633 19.8611C24.2736 18.6555 24.9535 17.0204 24.9535 15.3154C24.9535 13.6105 24.2736 11.9753 23.0633 10.7697C21.853 9.56415 20.2116 8.88686 18.5 8.88686ZM14.6279 15.3154C14.6279 14.2925 15.0359 13.3114 15.762 12.588C16.4882 11.8647 17.4731 11.4583 18.5 11.4583C19.5269 11.4583 20.5118 11.8647 21.238 12.588C21.9641 13.3114 22.3721 14.2925 22.3721 15.3154C22.3721 16.3384 21.9641 17.3195 21.238 18.0428C20.5118 18.7662 19.5269 19.1726 18.5 19.1726C17.4731 19.1726 16.4882 18.7662 15.762 18.0428C15.0359 17.3195 14.6279 16.3384 14.6279 15.3154Z" fill="#716A54"/>
<path fill-rule="evenodd" clip-rule="evenodd" d="M18.5 0.31543C10.7317 0.31543 5.49837 4.95086 2.46093 8.88171L2.40758 8.952C1.71921 9.84172 1.08763 10.6594 0.659116 11.6263C0.199628 12.6634 0 13.7931 0 15.3154C0 16.8377 0.199628 17.9674 0.659116 19.0046C1.08935 19.9714 1.72093 20.7909 2.40758 21.6789L2.46265 21.7491C5.49837 25.68 10.7317 30.3154 18.5 30.3154C26.2683 30.3154 31.5016 25.68 34.5391 21.7491L34.5924 21.6789C35.2808 20.7909 35.9124 19.9714 36.3409 19.0046C36.8004 17.9674 37 16.8377 37 15.3154C37 13.7931 36.8004 12.6634 36.3409 11.6263C35.9107 10.6594 35.2791 9.84172 34.5924 8.952L34.5373 8.88171C31.5016 4.95086 26.2683 0.31543 18.5 0.31543ZM4.50884 10.4503C7.31051 6.82114 11.8744 2.88686 18.5 2.88686C25.1256 2.88686 29.6878 6.82114 32.4912 10.4503C33.2484 11.4274 33.6889 12.0103 33.9798 12.6651C34.2517 13.2789 34.4186 14.028 34.4186 15.3154C34.4186 16.6029 34.2517 17.352 33.9798 17.9657C33.6889 18.6206 33.2467 19.2034 32.4929 20.1806C29.686 23.8097 25.1256 27.744 18.5 27.744C11.8744 27.744 7.31223 23.8097 4.50884 20.1806C3.75163 19.2034 3.31107 18.6206 3.02023 17.9657C2.74833 17.352 2.5814 16.6029 2.5814 15.3154C2.5814 14.028 2.74833 13.2789 3.02023 12.6651C3.31107 12.0103 3.75507 11.4274 4.50884 10.4503Z" fill="#716A54"/>
</svg>
