<svg width="22" height="23" viewBox="0 0 22 23" fill="none" xmlns="http://www.w3.org/2000/svg">
<rect x="22" y="22.2061" width="22" height="22" rx="11" transform="rotate(-180 22 22.2061)" fill="url(#paint0_linear_205_2681)"/>
<mask id="path-2-inside-1_205_2681" fill="white">
<path d="M13 15.2061H7L7 7.20605H13L13 15.2061Z"/>
</mask>
<path d="M13 15.2061V19.2061H19V15.2061H13ZM13 7.20605L19 7.20605V3.20605H13V7.20605ZM13 11.2061H7L7 19.2061H13V11.2061ZM7 11.2061H13L13 3.20605H7L7 11.2061ZM7 7.20605L7 15.2061H19V7.20605L7 7.20605Z" fill="url(#paint1_diamond_205_2681)" mask="url(#path-2-inside-1_205_2681)"/>
<defs>
<linearGradient id="paint0_linear_205_2681" x1="33" y1="22.2061" x2="33" y2="44.2061" gradientUnits="userSpaceOnUse">
<stop stop-color="#FAFAFA"/>
<stop offset="1" stop-color="#E2E2E2"/>
</linearGradient>
<radialGradient id="paint1_diamond_205_2681" cx="0" cy="0" r="1" gradientUnits="userSpaceOnUse" gradientTransform="translate(13 11.2061) rotate(-180) scale(6 4)">
<stop offset="1" stop-color="#A2A2A2"/>
<stop offset="1" stop-opacity="0"/>
</radialGradient>
</defs>
</svg>
